<?xml version="1.0" encoding="utf-8"?>
<!-- Generator: Adobe Illustrator 25.2.1, SVG Export Plug-In . SVG Version: 6.00 Build 0)  -->
<svg version="1.1" id="Layer_1" xmlns="http://www.w3.org/2000/svg" xmlns:xlink="http://www.w3.org/1999/xlink" x="0px" y="0px"
	 viewBox="0 0 1874.8 450.5" style="enable-background:new 0 0 1874.8 450.5;" xml:space="preserve">
<style type="text/css">
	.st0{fill:#013A44;}
	.st1{fill:#4B8047;}
	.st2{fill:#225087;}
	.st3{fill:#F1564A;}
	.st4{fill:#D9D9D9;}
	.st5{fill:#19A1A1;}
	.st6{fill:#231F20;}
	.st7{fill:#9BC792;}
	.st8{fill:#4C7F3E;}
	.st9{fill:#2775BB;}
	.st10{fill:none;}
	.st11{fill:#80C88E;}
	.st12{fill:#24282A;}
	.st13{fill:#80C88D;}
	.st14{fill:#A8D04B;}
	.st15{fill:#F99F44;}
	.st16{fill:#AA57A2;}
	.st17{fill:#24272A;}
	.st18{fill-rule:evenodd;clip-rule:evenodd;fill:#FFEA00;}
	.st19{fill:#462DE0;}
	.st20{fill:#0B3C84;}
	.st21{fill:#005CD6;}
	.st22{fill:#FEFEFE;}
	.st23{fill:#4085DF;}
	.st24{fill:#9BEBE4;}
	.st25{fill:#A1F5E3;}
	.st26{fill:#4A9BDD;}
	.st27{fill:#4084DF;}
	.st28{fill:#005CD5;}
	.st29{fill:#1D9BCF;}
	.st30{fill:#23A7CE;}
	.st31{fill:#26AECE;}
	.st32{fill:#1A95D0;}
	.st33{fill:#20A2CF;}
	.st34{fill:#0F7DD2;}
	.st35{fill:#35CDCB;}
	.st36{fill:#39D7CA;}
	.st37{fill:#0D78D3;}
	.st38{fill:#188FD0;}
	.st39{fill:#1283D2;}
	.st40{fill:#0A72D3;}
	.st41{fill:#1487D1;}
	.st42{fill:#1F9FCF;}
	.st43{fill:#0261D5;}
	.st44{fill:#37D2CA;}
	.st45{fill:#28B3CD;}
	.st46{fill:#086DD3;}
	.st47{fill:#0669D4;}
	.st48{fill:#168BD1;}
	.st49{fill:#30C2CC;}
	.st50{fill:#0464D4;}
	.st51{fill:#2AB6CD;}
	.st52{fill:#2CBACD;}
	.st53{fill:#32C7CB;}
	.st54{fill:#2EBECC;}
	.st55{fill:#2EBFCC;}
	.st56{fill:#107ED2;}
	.st57{fill:#1385D1;}
	.st58{fill:#0B73D3;}
	.st59{fill:#20A0CF;}
	.st60{fill:#0D78D2;}
	.st61{fill:#1282D2;}
	.st62{fill:#1D9ACF;}
	.st63{fill:#1B96D0;}
	.st64{fill:#096ED3;}
	.st65{fill:#1991D0;}
	.st66{fill:#0362D5;}
	.st67{fill:#0465D4;}
	.st68{fill:#28B1CD;}
	.st69{fill:#25ABCE;}
	.st70{fill:#2AB7CD;}
	.st71{fill:#2CBBCC;}
	.st72{fill:#1E9DCF;}
	.st73{fill:#2EC0CC;}
	.st74{fill:#34CDCB;}
	.st75{fill:#30C3CC;}
	.st76{fill:#42EBC8;}
	.st77{fill:#0E79D2;}
	.st78{fill:#0C75D3;}
	.st79{fill:#0B70D4;}
	.st80{fill:#39D6CA;}
	.st81{fill:#36D1CA;}
	.st82{fill:#0B74D3;}
	.st83{fill:#43ECC8;}
	.st84{fill:#1180D2;}
	.st85{fill:#1486D1;}
	.st86{fill:#0F7BD2;}
	.st87{fill:#1386D1;}
	.st88{fill:#168AD1;}
	.st89{fill:#40E5C9;}
	.st90{fill:#3DE0C9;}
	.st91{fill:#168CD1;}
	.st92{fill:#1890D0;}
	.st93{fill:#1A94D0;}
	.st94{fill:#0362D4;}
	.st95{fill:#41E7C8;}
	.st96{fill:#0566D4;}
	.st97{fill:#1E9CCF;}
	.st98{fill:#27B1CD;}
	.st99{fill:#23A8CE;}
	.st100{fill:#25ACCE;}
	.st101{fill:#1A93D0;}
	.st102{fill:#1B97D0;}
	.st103{fill:#0D77D3;}
	.st104{fill:#21A3CF;}
	.st105{fill:#2FC2CC;}
	.st106{fill:#1589D1;}
	.st107{fill:#2DBDCC;}
	.st108{fill:#34CCCB;}
	.st109{fill:#37D1CA;}
	.st110{fill:#3CDEC9;}
	.st111{fill:#31C6CB;}
	.st112{fill:#3AD8CA;}
	.st113{fill:#27B0CD;}
	.st114{fill:#3BDCC9;}
	.st115{fill:#24AACE;}
	.st116{fill:#22A5CE;}
	.st117{fill:#1D99D0;}
	.st118{fill:#20A1CF;}
	.st119{fill:#1F9CD0;}
	.st120{fill:#3FE3C9;}
	.st121{fill:#086ED3;}
	.st122{fill:#2DBBCC;}
	.st123{fill:#38D3CA;}
	.st124{fill:#29B5CD;}
	.st125{fill:#26ADCE;}
	.st126{fill:#24A8CE;}
	.st127{fill:#37D3CA;}
	.st128{fill:#1C95D0;}
	.st129{fill:#2FC1CC;}
	.st130{fill:#36CFCB;}
	.st131{fill:#33C9CB;}
	.st132{fill:#2BB7CD;}
	.st133{fill:#2DBCCC;}
	.st134{fill:#23A6CE;}
	.st135{fill:#35C9CC;}
	.st136{fill:#E3262D;}
	.st137{fill:none;stroke:#FFFFFF;stroke-width:1.4384;stroke-miterlimit:10;}
	.st138{fill:none;stroke:#FFFFFF;stroke-width:1.445;stroke-miterlimit:10;}
	.st139{fill:#FFFFFF;stroke:#FFFFFF;stroke-width:1.4384;stroke-miterlimit:10;}
	.st140{fill:#FFFFFF;}
	.st141{fill:#FFFFFF;stroke:#FFFFFF;stroke-width:1.445;stroke-miterlimit:10;}
</style>
<g>
	<path class="st0" d="M412.8,149.6h-68.9c-22.2,0-40.4-18.1-40.4-40.4V40.4c0-22.2,18.1-40.4,40.4-40.4h68.9
		c22.2,0,40.4,18.1,40.4,40.4v68.9C453.1,131.5,435,149.6,412.8,149.6z M343.9,26c-7.9,0-14.4,6.4-14.4,14.4v68.9
		c0,7.9,6.4,14.4,14.4,14.4h68.9c7.9,0,14.4-6.4,14.4-14.4V40.4c0-7.9-6.4-14.4-14.4-14.4C412.8,26,343.9,26,343.9,26z"/>
</g>
<g>
	<path class="st0" d="M237,451.4h-68.9c-22.2,0-40.4-18.1-40.4-40.4v-68.9c0-22.2,18.1-40.4,40.4-40.4H237
		c22.2,0,40.4,18.1,40.4,40.4V411C277.4,433.3,259.3,451.4,237,451.4z M168.1,327.8c-7.9,0-14.4,6.4-14.4,14.4v68.9
		c0,7.9,6.4,14.4,14.4,14.4H237c7.9,0,14.4-6.4,14.4-14.4v-68.9c0-7.9-6.4-14.4-14.4-14.4H168.1z"/>
</g>
<g>
	<path class="st0" d="M109.2,307.8H40.4C18.2,307.8,0,289.7,0,267.4v-68.9c0-22.2,18.1-40.4,40.4-40.4h68.9
		c22.2,0,40.4,18.1,40.4,40.4v68.9C149.6,289.7,131.5,307.8,109.2,307.8z M40.4,184.2c-7.9,0-14.4,6.4-14.4,14.4v68.9
		c0,7.9,6.4,14.4,14.4,14.4h68.9c7.9,0,14.4-6.4,14.4-14.4v-68.9c0-7.9-6.4-14.4-14.4-14.4H40.4z"/>
</g>
<g>
	<path class="st2" d="M549.1,446.9V195.7h30.1v251.2H549.1z"/>
	<path class="st2" d="M636.7,446.9V195.7h58.5l87.5,232.1h4.6V195.7h29.8v251.2h-58.5l-87.2-232.6h-5.1v232.6
		C666.5,446.9,636.7,446.9,636.7,446.9z"/>
	<path class="st2" d="M863.1,446.9v-27h35.2V222.6h-35.2v-27h97.9c33,0,58.5,8.4,76.5,25.2c18.1,16.8,27.1,42.5,27.1,77.2v46.6
		c0,34.9-9,60.7-27.1,77.3c-18.1,16.7-43.5,24.9-76.5,24.9h-97.9V446.9z M928.4,419.6h32.7c24.4,0,42.8-6,55.3-18
		c12.4-11.9,18.6-30.5,18.6-55.7v-49.1c0-25.6-6.2-44.2-18.6-56c-12.5-11.7-30.9-17.6-55.3-17.6h-32.7V419.6L928.4,419.6z"/>
	<path class="st2" d="M1168.8,446.9V351l-89.3-155.4h34.5l67.5,120.6h5.1l67.5-120.6h34.5L1199,351v95.8h-30.2V446.9z"/>
</g>
<path class="st2" d="M205.7,398.4c-0.7,0-1.4-0.1-2.1-0.1c-6.9-0.5-13.4-1-151-165.3l21-17.6c50.2,59.9,106.9,125.8,129.1,149.1
	C230,321.9,320.5,160.4,377.4,57.1l24,13.2c-0.4,0.8-44.8,81.3-89.6,160.7C223.2,388.2,215.6,398.4,205.7,398.4z"/>
<path class="st2" d="M202.6,410c-18.4,0-33.4-15-33.4-33.4s15-33.4,33.4-33.4s33.4,15,33.4,33.4S221,410,202.6,410z M202.6,376.1
	c-0.3,0-0.5,0.2-0.5,0.5c0,0.6,1.1,0.6,1.1,0C203.1,376.3,202.9,376.1,202.6,376.1z"/>
<path class="st2" d="M74.8,266.4c-18.4,0-33.4-15-33.4-33.4s15-33.4,33.4-33.4s33.4,15,33.4,33.4C108.2,251.4,93.2,266.4,74.8,266.4
	z M74.8,232.5c-0.3,0-0.5,0.2-0.5,0.5c0,0.6,1.1,0.6,1.1,0C75.3,232.7,75.1,232.5,74.8,232.5z"/>
<path class="st2" d="M378.4,108.2c-18.4,0-33.4-15-33.4-33.4s15-33.4,33.4-33.4s33.4,15,33.4,33.4S396.8,108.2,378.4,108.2z
	 M378.4,74.2c-0.3,0-0.5,0.2-0.5,0.5c0,0.6,1.1,0.6,1.1,0C378.9,74.5,378.7,74.2,378.4,74.2z"/>
<g>
	<path class="st0" d="M1360.6,116.3c0.1-0.7,0.1-1.4,0.2-2.1c0,0,0,0,0-0.1h-18.5l-0.1,0.5c-0.5,4.2-3.2,7.2-7.1,8.1
		c-1.5,0.3-3.1,0.5-4.6,0.5c-17.7,0-35.4,0-53.1,0c-1.5,0-3.1-0.2-4.6-0.5c-3.5-0.8-5.8-2.9-6.8-6c-0.4-1.2-0.6-2.6-0.6-4
		c-0.1-2-0.1-4.1,0-6.1v-1.9v-2.3l95.6,0.2v-6.7c0-5.1,0-10.3,0-15.4c0-2.4-0.2-4.5-0.5-6.5c-0.8-5.3-3.2-9.8-7.3-13.3
		c-5.4-4.8-12.1-7.2-19.8-7.3c-8.4,0-16.9-0.1-25.4-0.1c-9.3,0-18.6,0-27.8,0h-5.7c-1.7,0-3.6,0.2-5.6,0.5c-3.4,0.6-6.5,1.7-9.4,3.3
		c-4.3,2.4-7.6,5.6-9.8,9.6c-2,3.6-3,7.5-3,12v14.4c0,6.5,0,13,0,19.5c0,1.3,0.1,2.7,0.3,4.1c1,7.2,4.9,12.9,11.5,16.9
		c4.9,2.9,10.5,4.4,16.6,4.4c17.3,0,34.5,0,51.8,0h5.8c5,0,9.7-1,13.9-3C1354.9,131.1,1359.5,124.9,1360.6,116.3z M1265.4,77.5
		c0.2-4.6,3-7.9,7.6-8.9c1.5-0.3,3.1-0.5,4.7-0.5c13.6,0,27.1,0,40.7,0h11.9c1.6,0,3.8,0.1,5.9,0.8c3.7,1.3,5.8,4,6.1,7.8
		c0.2,2.2,0.1,4.5,0.1,6.7c0,0.9,0,1.9,0,2.8v1.3h-77v-1.7c0-0.8,0-1.6,0-2.5C1265.3,81.5,1265.3,79.5,1265.4,77.5z"/>
	<path class="st0" d="M1765.8,74c-0.8-5.3-3.2-9.8-7.3-13.3c-5.4-4.8-12.1-7.2-19.8-7.3c-8.4,0-16.9-0.1-25.4-0.1
		c-9.3,0-18.6,0-27.8,0h-5.7c-1.7,0-3.6,0.2-5.6,0.5c-3.4,0.6-6.5,1.7-9.4,3.3c-4.3,2.4-7.6,5.6-9.8,9.6c-2,3.6-3,7.5-3,12v14.4
		c0,6.5,0,13,0,19.5c0,1.3,0.1,2.7,0.3,4.1c1,7.2,4.9,12.9,11.5,16.9c4.9,2.9,10.5,4.4,16.6,4.4c17.3,0,34.5,0,51.8,0h5.8
		c5,0,9.7-1,13.9-3c8.3-4,12.9-10.2,14-18.8c0.1-0.7,0.1-1.4,0.2-2.1c0,0,0,0,0-0.1h-18.5l-0.1,0.5c-0.5,4.2-3.2,7.2-7.1,8.1
		c-1.5,0.3-3.1,0.5-4.6,0.5c-17.7,0-35.4,0-53.1,0c-1.5,0-3.1-0.2-4.6-0.5c-3.5-0.8-5.8-2.9-6.8-6c-0.4-1.2-0.6-2.6-0.6-4
		c-0.1-2-0.1-4.1,0-6.1v-1.9v-2.3l95.6,0.2v-6.7c0-5.1,0-10.3,0-15.4C1766.2,78.1,1766.1,76,1765.8,74z M1747.7,83.4
		c0,0.9,0,1.9,0,2.8v1.3h-77v-1.7c0-0.8,0-1.6,0-2.5c0-1.9,0-4,0.1-5.9c0.2-4.6,3-7.9,7.6-8.9c1.5-0.3,3.1-0.5,4.7-0.5
		c13.6,0,27.1,0,40.7,0h11.9c1.6,0,3.8,0.1,5.9,0.8c3.7,1.3,5.8,4,6.1,7.8C1747.7,79,1747.7,81.2,1747.7,83.4z"/>
	<path class="st0" d="M1077.5,74c-0.8-5.3-3.2-9.8-7.3-13.3c-5.4-4.8-12.1-7.2-19.8-7.3c-8.4,0-16.9-0.1-25.4-0.1
		c-9.3,0-18.6,0-27.7,0h-5.7c-1.7,0-3.6,0.2-5.6,0.5c-3.4,0.6-6.5,1.7-9.4,3.3c-4.3,2.4-7.6,5.6-9.8,9.6c-2,3.6-3,7.5-3,12V93
		c0,6.6,0,13.1,0,19.7c0,1.3,0.1,2.7,0.3,4.1c1,7.2,4.9,12.9,11.5,16.9c4.9,2.9,10.5,4.4,16.6,4.4c17.3,0,34.5,0,51.8,0h5.8
		c5,0,9.7-1,13.9-3c8.3-4,12.9-10.2,14-18.8c0.1-0.7,0.1-1.4,0.2-2.1c0,0,0,0,0-0.1h-18.5l-0.1,0.5c-0.5,4.2-3.2,7.2-7.1,8.1
		c-1.5,0.3-3.1,0.5-4.6,0.5c-17.7,0-35.4,0-53.1,0c-1.5,0-3.1-0.2-4.6-0.5c-3.5-0.8-5.8-2.9-6.8-6c-0.4-1.2-0.6-2.6-0.6-4
		c-0.1-2-0.1-4.1,0-6.1v-1.9c0-0.3,0-0.5,0.1-0.8l0.2-1.3h95.3v-6.7c0-5.1,0-10.3,0-15.4C1077.9,78.1,1077.8,76,1077.5,74z
		 M1059.3,83.5c0,0.9,0,1.9,0,2.8c0,0.3-0.1,0.5-0.2,0.6l-0.2,0.6l-0.7,0.1h-75.7l-0.1-1.1c0-0.2-0.1-0.4-0.1-0.6c0-0.8,0-1.6,0-2.5
		c0-1.9,0-4,0.1-5.9c0.2-4.6,3-7.9,7.6-8.9c1.5-0.3,3.1-0.5,4.7-0.5c13.6,0,27.1,0,40.7,0h11.9c1.6,0,3.8,0.1,5.9,0.8
		c3.7,1.3,5.8,4,6.1,7.8C1059.4,79.1,1059.3,81.3,1059.3,83.5z"/>
	<path class="st0" d="M566,75.7V10.2h-18.7V138c2.2,0,3.9,0,5.9,0c3,0,6.5,0,12.7-0.1v-14.4c0.1-12.8,0-9.9,0-22.7L566,75.7
		L566,75.7z"/>
	<path class="st0" d="M1870.7,66.6c-2.2-4.2-5.4-7.4-9.5-9.7s-8.8-3.4-14.4-3.5c-7.5-0.1-14.3-0.1-20.7,0c-4.3,0.1-8.6,1-12.3,2.6
		c-2.5,1.1-4.7,2.8-6.7,4.7l-0.1,0.1v-7.2h-18.7c0,0,0.4,84.7,0.1,84.5h18.5l0.3-57.3c0-1.7,0.1-3.2,0.3-4.5c0.4-3.3,2.2-5.7,5.3-7
		c2.2-0.9,4.4-1.1,6.3-1.1c8.1,0,16.1,0,24.2,0c1.3,0,2.6,0.2,3.9,0.4c4.7,0.7,7.7,4.1,8,9.1l0,0h18.6
		C1873.4,73.2,1872.3,69.6,1870.7,66.6z"/>
	<path class="st0" d="M1183.5,66.6c-2.2-4.2-5.4-7.4-9.5-9.7s-8.8-3.4-14.4-3.5c-7.5-0.1-14.3-0.1-20.7,0c-4.3,0.1-8.6,1-12.3,2.6
		c-2.5,1.1-4.7,2.8-6.7,4.7l-0.1,0.1v-7.2h-18.7c0,0,0.4,84.7,0.1,84.5h18.5l0.3-57.3c0-1.7,0.1-3.2,0.3-4.5c0.4-3.3,2.2-5.7,5.3-7
		c2.2-0.9,4.4-1.1,6.3-1.1c8.1,0,16.1,0,24.2,0c1.3,0,2.6,0.2,3.9,0.4c4.7,0.7,7.7,4.1,8,9.1l0,0h18.6
		C1186.2,73.2,1185.1,69.6,1183.5,66.6z"/>
	<path class="st0" d="M914,138.1c1,0,2-0.1,3-0.2h0.2c5.3-0.6,10.2-2.5,14.3-5.4c3.6-2.6,6.2-5.7,7.9-9.6c1.3-3.1,2-6.4,2-10.2
		c0-10.9,0-21.8,0-32.7v-1.4c0-1.8-0.1-4.1-0.6-6.3c-1.4-5.6-4.5-10.1-9.2-13.4c-5.3-3.8-11.5-5.7-18.4-5.7c-14.9,0-29.7,0-44.6,0
		c-1.8,0-3.6,0.2-5.4,0.5c-4.1,0.7-8,2.2-11.6,4.6c-0.2,0.2-1.5,1-2.5,1.7l0,0v-6.4h-18.6V161c2,0,5.5,0,9,0c3.7,0,7.4,0,9.6,0
		v-50.8c0-10,0-20.1,0-30.1v-0.5c0-1,0-2,0.1-3.1c0.5-3.8,2.5-6.4,5.9-7.5c1.6-0.6,3.3-0.9,4.9-0.9c6.5-0.1,12.9,0,19.4,0h6.6h6.8
		c6.4,0,12.8,0,19.2,0c1.5,0,3.2,0.3,4.9,0.9c3.6,1.3,5.9,4.5,5.9,8.5c0,12.1,0,24.2,0,36.3c0,4.7-2.8,8.1-7.3,9.1
		c-1.5,0.3-3,0.5-4.6,0.5c-12.6,0-22.9,0-33.6,0h-9.8l-13.9,14.8c14.4,0,44.3,0,59.1,0L914,138.1z"/>
	<path class="st0" d="M1496.2,137.7V13l-18.6,0.1v98.7c0,1,0,2-0.1,3.1c-0.5,3.8-2.5,6.4-5.9,7.5c-1.6,0.6-3.3,0.9-4.9,0.9h-51.9
		c-1.5,0-3.2-0.3-4.9-0.9c-3.6-1.3-5.9-4.5-5.9-8.5c0-12.1,0-24.2,0-36.3c0-4.7,2.8-8.1,7.3-9.1c1.5-0.3,3-0.5,4.6-0.5h43.3
		l13.9-14.8c-14.4,0-44.3,0-59.1,0h-1.5c-1,0-2,0.1-3,0.2h-0.2c-5.4,0.6-10.2,2.5-14.3,5.4c-3.6,2.6-6.2,5.8-7.9,9.6
		c-1.3,3.1-2,6.4-2,10.2c0,11.4,0,22.7,0,34.1c0,1.8,0.1,4.1,0.6,6.3c1.4,5.6,4.5,10.1,9.2,13.4c5.3,3.8,11.5,5.7,18.4,5.7
		c14.9,0,29.7,0,44.6,0c1.8,0,3.6-0.2,5.4-0.5c4.1-0.7,8-2.2,11.6-4.6c0.2-0.2,1.2-0.8,2.5-1.5l0,0l0,0l0,0v6.2L1496.2,137.7
		L1496.2,137.7z"/>
	<polygon class="st0" points="1205,11.2 1205,138.1 1223.6,138.1 1223.6,11.2 	"/>
	<path class="st0" d="M654.9,11.2V69c-15.7,0-67.6,0-76.6,0l-12.2,14.8c14.6,0,66.8,0,88.8,0v54.3h18.7v-127L654.9,11.2L654.9,11.2z
		"/>
	<path class="st0" d="M1631,53.7c0-0.2,0-0.4,0-0.6c-2.4,0-4.8,0-7.2,0c-3.8,0-7.5,0-11.3,0l-0.1,6.6c0,0-7.5-6.8-20.1-6.8
		c-7,0-13.9,0-20.9,0c-7.6,0-15.2,0-22.8,0c-2.2,0-4,0.1-5.6,0.4c-4.4,0.7-8.3,2.2-11.7,4.3c-4.9,3.1-8.2,7.2-9.9,12.1
		c-0.9,2.6-1.4,5.5-1.4,8.8c0,7.5,0,14.9,0,22.4v11.2c0,2,0.1,3.8,0.4,5.4c0.8,4.4,2.6,8.3,5.6,11.4c5.5,5.9,12.5,8.9,20.7,9
		c13.7,0.2,29.7,0.1,45.2,0.1h1.8l13.9-14.8c-16.9,0-41.3,0-57.3,0c-1.5,0-3.1-0.2-4.9-0.7c-3.9-1.1-6.4-4.1-6.7-8.4
		c0-0.5,0-0.9,0-1.4v-12.2V78.7c0-1.5,0.1-3.1,0.7-4.6c1-2.7,2.9-4.5,5.5-5.3c1.7-0.6,3.4-0.8,4.9-0.9c6.5-0.1,12.9,0,19.4,0h6.6
		h6.5c6.5,0,13,0,19.5,0c1.5,0,3.1,0.3,4.7,0.9c2.8,0.9,4.7,3,5.5,5.9c0.3,1.2,0.5,2.4,0.5,3.5l0.1,68.7l0,0v0.3c0,1,0,2,0,3
		c0,0.8-0.2,1.8-0.6,2.7c-1,2.2-2.7,3.8-5.2,4.7c-1.7,0.6-3.6,1-5.6,0.9H1579c-10.2,0-20.6,0-29.3,0l-12.2,14.8
		c13.4,0.1,36.9,0,54.2,0h12.2c1.3,0,2.6-0.1,3.8-0.3c4.2-0.5,8.3-1.8,12-4.1c4.5-2.8,7.7-6.3,9.6-10.8c1.3-3,1.9-6.3,1.9-10.4
		c0-21.3,0-42.6,0-63.8L1631,53.7z"/>
	<path class="st0" d="M806.8,53.8c0-0.1,0-0.3,0-0.4h-18.6v11c0,15.9,0,31.8,0,47.7c0,1.3-0.1,2.6-0.4,3.9c-0.6,2.8-2.3,4.9-4.9,6.1
		c-1.9,0.9-4,1.3-6.7,1.3h-11.7c-12.7,0-25.3,0-38,0c-1.6,0-3.1-0.2-4.6-0.5c-3.5-0.8-5.9-2.9-7-6.1c-0.5-1.5-0.5-3-0.5-4.4V54.2
		c0-0.2,0-0.4,0-0.6h-18.5v13.1c0,15.1,0,30.3,0,45.4c0,1.7,0.1,3.4,0.3,5.2c0.6,4.4,2.4,8.4,5.4,11.7c5.5,6,12.5,9.1,20.9,9.2
		l48.5,0.1c5.7,0,10.8-1.4,14.9-4.1c0.2-0.2,1.4-0.9,2.4-2.1l0,0v17.8c0,2.8-1.4,5.1-3.9,6.8c-2,1.3-4.4,1.9-7.3,1.9l0,0h-17.5
		c-11.8,0-24.7,0-34.3,0L713,173.2c16.5,0,51.5,0,66.3,0c1.1,0,2.4-0.1,3.9-0.3c5.1-0.6,9.8-2.4,13.9-5.4c6.4-4.7,9.6-10.9,9.7-18.4
		c0.1-23.5,0.1-47.4,0-70.5V53.8L806.8,53.8z"/>
</g>
</svg>
