<?xml version="1.0" encoding="utf-8"?>
<svg width="313" height="311" viewBox="0 0 313 311" fill="none" xmlns="http://www.w3.org/2000/svg">
  <style>
    path {
    fill: black;
    }
    @media (prefers-color-scheme: dark) {
    path {
    fill: white;
    }
    }
  </style>
  <path d="M 297 155.5 C 297 233.1 234.1 296 156.5 296 C 78.9 296 16 233.1 16 155.5 C 16 77.9 78.9 15 156.5 15 C 234.1 15 297 77.9 297 155.5 Z M 235.952 170.863 C 228.56 170.91 222.596 176.865 222.632 184.184 C 222.632 184.196 222.632 184.196 222.632 184.208 C 222.596 191.515 228.56 197.47 235.952 197.505 C 243.345 197.458 249.297 191.504 249.273 184.208 C 249.333 176.9 243.381 170.922 235.988 170.863 C 235.976 170.863 235.964 170.863 235.952 170.863 Z M 232.204 155.603 C 238.57 151.928 240.766 143.779 237.09 137.415 C 233.414 131.051 225.263 128.855 218.897 132.531 C 212.554 136.182 210.358 144.272 213.964 150.636 L 214.046 150.754 C 217.722 157.106 225.838 159.278 232.192 155.603 C 232.192 155.615 232.204 155.615 232.204 155.603 Z M 94.567 132.603 C 88.198 128.915 80.042 131.076 76.352 137.442 C 72.662 143.808 74.824 151.959 81.194 155.646 C 87.563 159.334 95.719 157.173 99.409 150.808 L 99.409 150.761 C 103.076 144.407 100.913 136.279 94.567 132.603 Z M 116.395 128.926 C 123.761 128.914 129.726 122.935 129.714 115.581 C 129.714 113.279 129.114 111.023 127.973 109.026 C 124.361 102.648 116.242 100.392 109.842 104.01 C 109.83 104.01 109.83 104.022 109.818 104.022 L 109.595 104.151 C 103.265 107.91 101.182 116.086 104.947 122.406 C 107.348 126.435 111.689 128.914 116.395 128.926 Z M 156.385 91.42 C 149.032 91.42 143.064 97.387 143.064 104.741 C 143.064 112.094 149.032 118.062 156.385 118.062 C 163.739 118.062 169.706 112.094 169.706 104.741 C 169.706 97.387 163.739 91.42 156.385 91.42 Z M 113.889 170.873 C 106.535 170.873 100.568 176.84 100.568 184.194 C 100.568 191.547 106.535 197.515 113.889 197.515 C 121.242 197.515 127.21 191.547 127.21 184.194 C 127.21 176.84 121.242 170.873 113.889 170.873 Z M 178.656 134.517 C 171.303 134.517 165.335 140.484 165.335 147.838 C 165.335 155.191 171.303 161.159 178.656 161.159 C 186.01 161.159 191.977 155.191 191.977 147.838 C 191.977 140.484 186.01 134.517 178.656 134.517 Z M 189.788 127.625 L 189.96 127.721 C 196.823 131.132 205.197 128.432 208.672 121.696 C 211.876 115.479 209.801 107.887 203.846 104.079 C 197.007 100.621 188.609 103.248 185.085 109.96 C 181.819 116.165 183.845 123.781 189.788 127.625 Z M 77.307 170.863 C 69.957 170.745 63.88 176.59 63.727 183.942 C 63.727 184.024 63.727 184.13 63.727 184.213 C 63.75 191.577 69.722 197.527 77.083 197.504 C 84.444 197.48 90.392 191.506 90.369 184.142 C 90.345 176.908 84.538 171.005 77.307 170.863 Z M 198.428 170.833 C 191.074 170.833 185.107 176.801 185.107 184.154 C 185.107 191.508 191.074 197.475 198.428 197.475 C 205.781 197.475 211.749 191.508 211.749 184.154 C 211.749 176.801 205.781 170.833 198.428 170.833 Z M 142.078 158.915 C 148.201 154.855 149.866 146.594 145.808 140.469 C 142.113 134.895 134.852 132.935 128.858 135.88 L 128.776 135.927 C 122.196 139.19 119.51 147.181 122.771 153.764 C 126.031 160.347 134.019 163.034 140.6 159.772 C 141.116 159.525 141.608 159.232 142.078 158.915 Z"/>
</svg>