<svg id="Layer_1" data-name="Layer 1" xmlns="http://www.w3.org/2000/svg" viewBox="0 0 415.33 122.31"><defs><style>.cls-1{fill:#231f20;}</style></defs><title>Hyperledger_Indy_Logo_Black</title><g id="g3476"><g id="g-39"><g id="g-40"><path id="path3480" class="cls-1" d="M267.6,358.28l-15,8.7-15-8.7V340.89l15-8.7,15,8.7Z" transform="translate(-188.47 -244.67)"/></g></g></g><g id="g3482"><g id="g-11"><g id="g-12"><path id="path3486" class="cls-1" d="M232.23,260.32l-9,5.22-9-5.22V249.89l9-5.22,9,5.22Z" transform="translate(-188.47 -244.67)"/></g></g></g><g id="g3488"><g id="g-1"><g id="g-2"><path id="path3492" class="cls-1" d="M308.51,308.27l-5.88,3.42-5.88-3.42v-6.83l5.88-3.42,5.88,3.42Z" transform="translate(-188.47 -244.67)"/></g></g></g><g id="g3494"><g id="g-15"><g id="g-16"><path id="path3498" class="cls-1" d="M284.9,357.2l-7.59,4.41-7.59-4.41v-8.83L277.3,344l7.59,4.41Z" transform="translate(-188.47 -244.67)"/></g></g></g><g id="g3500"><g id="g-31"><g id="g-32"><path id="path3504" class="cls-1" d="M268,320.08l-33.8,19.65-33.8-19.65v-39.3l33.8-19.65L268,280.78Z" transform="translate(-188.47 -244.67)"/></g></g></g><g id="g3506"><g id="g-3"><g id="g-4"><path id="path3510" class="cls-1" d="M313.83,341.56l-17.74,10.31-17.74-10.31V320.94l17.74-10.31,17.74,10.31Z" transform="translate(-188.47 -244.67)"/></g></g></g><g id="g3512"><g id="g-25"><g id="g-26"><path id="path3516" class="cls-1" d="M312.68,298.44l-3.26,1.89-3.26-1.89v-3.79l3.26-1.89,3.26,1.89Z" transform="translate(-188.47 -244.67)"/></g></g></g><g id="g3518"><g id="g-5"><g id="g-6"><path id="path3522" class="cls-1" d="M212.12,343l-11.83,6.88L188.47,343V329.28l11.83-6.88,11.83,6.88Z" transform="translate(-188.47 -244.67)"/></g></g></g><g id="g3524"><g id="g-7"><g id="g-8"><path id="path3528" class="cls-1" d="M212.79,259.8l-4.4,2.56L204,259.8v-5.12l4.4-2.56,4.4,2.56Z" transform="translate(-188.47 -244.67)"/></g></g></g><g id="g3530"><g id="g-9"><g id="g-10"><path id="path3534" class="cls-1" d="M317,296.73l-1.59.93-1.59-.93v-1.85l1.59-.93,1.59.93Z" transform="translate(-188.47 -244.67)"/></g></g></g><g id="g3536"><g id="g-13"><g id="g-14"><path id="path3540" class="cls-1" d="M205.67,263.81l-1.59.93-1.59-.93V262l1.59-.93,1.59.93Z" transform="translate(-188.47 -244.67)"/></g></g></g><g id="g3542"><g id="g-17"><g id="g-18"><path id="path3546" class="cls-1" d="M271.86,276.8,268,279.07l-3.89-2.26v-4.52L268,270l3.89,2.26Z" transform="translate(-188.47 -244.67)"/></g></g></g><g id="g3548"><g id="g-19"><g id="g-20"><path id="path3552" class="cls-1" d="M287.68,279.43l-7.14,4.15-7.14-4.15v-8.31l7.14-4.15,7.14,4.15Z" transform="translate(-188.47 -244.67)"/></g></g></g><g id="g3554"><g id="g-21"><g id="g-22"><path id="path3558" class="cls-1" d="M236.07,358l-2.19,1.27L231.68,358v-2.55l2.19-1.27,2.19,1.27Z" transform="translate(-188.47 -244.67)"/></g></g></g><rect class="cls-1" x="153.23" y="58.04" width="7.12" height="52.52"/><polygon class="cls-1" points="173.85 58.04 183.2 58.04 212.13 101.21 212.28 101.21 212.28 58.04 219.4 58.04 219.4 110.56 210.35 110.56 181.12 67.39 180.97 67.39 180.97 110.56 173.85 110.56 173.85 58.04"/><path class="cls-1" d="M420.18,302.71H438.5c22.18,0,27.6,16.54,27.6,26.26,0,13.43-10,26.26-28.78,26.26H420.18Zm7.12,45.84h9c12,0,22.25-6.6,22.25-19.58,0-6.68-3.49-19.58-20.55-19.58H427.3Z" transform="translate(-188.47 -244.67)"/><polygon class="cls-1" points="300.26 88.16 280.38 58.04 289.5 58.04 303.82 81.11 318.58 58.04 327.26 58.04 307.38 88.16 307.38 110.56 300.26 110.56 300.26 88.16"/><polygon class="cls-1" points="152.53 14.63 158.29 14.6 158.34 24.34 169.53 24.28 169.47 14.54 175.23 14.52 175.37 40.63 169.61 40.65 169.55 29.37 158.37 29.43 158.43 40.71 152.67 40.74 152.53 14.63"/><polygon class="cls-1" points="186.68 29.59 176.78 14.67 183.94 14.63 189.53 24.37 195.34 14.57 202.17 14.54 192.44 29.56 192.49 40.7 186.74 40.73 186.68 29.59"/><path class="cls-1" d="M392.19,259.27l9.71,0a18.92,18.92,0,0,1,3.84.35,8.79,8.79,0,0,1,3.17,1.25,6.48,6.48,0,0,1,2.15,2.42,8.33,8.33,0,0,1,.82,3.85,8.94,8.94,0,0,1-.72,3.84,6.35,6.35,0,0,1-2,2.48,8.23,8.23,0,0,1-3.06,1.32,17.93,17.93,0,0,1-3.84.41l-4.21,0,.05,10.18-5.76,0Zm5.82,11,3.84,0a7.32,7.32,0,0,0,1.5-.16,4,4,0,0,0,1.29-.51,2.67,2.67,0,0,0,.92-1,3,3,0,0,0,.34-1.53,2.61,2.61,0,0,0-.47-1.6,3.09,3.09,0,0,0-1.19-.94,5.11,5.11,0,0,0-1.61-.41,16.19,16.19,0,0,0-1.7-.08h-3Z" transform="translate(-188.47 -244.67)"/><polygon class="cls-1" points="226.83 14.62 244.58 14.53 244.61 19.84 232.61 19.9 232.64 24.77 243.97 24.71 244 30.02 232.66 30.08 232.69 35.39 245.35 35.33 245.38 40.63 226.96 40.73 226.83 14.62"/><path class="cls-1" d="M438,259.27l10.11-.05a17.74,17.74,0,0,1,3.78.37,9,9,0,0,1,3.15,1.27,6.45,6.45,0,0,1,2.15,2.42,8.23,8.23,0,0,1,.82,3.81,7.68,7.68,0,0,1-1.42,4.71,6.46,6.46,0,0,1-4.19,2.47l6.7,11-6.9,0-5.51-10.41-2.85,0,.05,10.44-5.76,0ZM443.77,270l3.4,0c.51,0,1.07,0,1.64-.06a5.11,5.11,0,0,0,1.57-.34,2.72,2.72,0,0,0,1.16-.87,2.66,2.66,0,0,0,.45-1.66,2.77,2.77,0,0,0-.42-1.58,2.7,2.7,0,0,0-1-.9,4.57,4.57,0,0,0-1.44-.42,11.33,11.33,0,0,0-1.59-.1l-3.76,0Z" transform="translate(-188.47 -244.67)"/><polygon class="cls-1" points="273.25 14.59 279.01 14.56 279.12 35.36 289.79 35.3 289.81 40.62 273.39 40.7 273.25 14.59"/><polygon class="cls-1" points="292.7 14.62 310.45 14.53 310.48 19.84 298.49 19.9 298.51 24.77 309.84 24.71 309.87 30.02 298.54 30.08 298.57 35.39 311.23 35.33 311.25 40.63 292.84 40.73 292.7 14.62"/><path class="cls-1" d="M503.83,259.27l8.64,0a24.74,24.74,0,0,1,6,.67,13.68,13.68,0,0,1,4.94,2.24,11.12,11.12,0,0,1,3.36,4.06,13.65,13.65,0,0,1,1.27,6.08,12.39,12.39,0,0,1-1.17,5.59,12,12,0,0,1-3.21,4.07,14.25,14.25,0,0,1-4.67,2.51,18.13,18.13,0,0,1-5.57.88l-9.41.05ZM509.69,280l3,0a16.17,16.17,0,0,0,3.7-.42,8,8,0,0,0,3-1.36,6.43,6.43,0,0,0,2-2.48A8.76,8.76,0,0,0,522,272a7.3,7.3,0,0,0-.74-3.34,6.66,6.66,0,0,0-1.95-2.33,8.44,8.44,0,0,0-2.87-1.37,12.68,12.68,0,0,0-3.45-.45l-3.39,0Z" transform="translate(-188.47 -244.67)"/><path class="cls-1" d="M555.25,283.45a20.79,20.79,0,0,1-5.3,1.95,26.87,26.87,0,0,1-5.64.62,16.18,16.18,0,0,1-5.65-.93,12.94,12.94,0,0,1-4.48-2.73,12.43,12.43,0,0,1-3-4.32,15.88,15.88,0,0,1-.06-11.36,12.51,12.51,0,0,1,2.91-4.35,12.84,12.84,0,0,1,4.45-2.77,16,16,0,0,1,5.64-1,20.87,20.87,0,0,1,5.78.72,11.32,11.32,0,0,1,4.64,2.58l-4,4.45a8.1,8.1,0,0,0-2.67-1.83,9.46,9.46,0,0,0-3.69-.61,8.54,8.54,0,0,0-3.34.64,7.58,7.58,0,0,0-2.56,1.76,7.78,7.78,0,0,0-1.63,2.69,10.19,10.19,0,0,0,0,6.73,7.72,7.72,0,0,0,1.65,2.65,7.52,7.52,0,0,0,2.58,1.74,8.6,8.6,0,0,0,3.34.61,11.06,11.06,0,0,0,3.25-.44,12.21,12.21,0,0,0,2.17-.88l0-4.24-4.69,0,0-5.31,10.22-.06Z" transform="translate(-188.47 -244.67)"/><polygon class="cls-1" points="371.57 14.62 389.32 14.53 389.35 19.84 377.36 19.9 377.38 24.77 388.71 24.71 388.74 30.02 377.41 30.08 377.44 35.39 390.1 35.33 390.12 40.63 371.71 40.73 371.57 14.62"/><path class="cls-1" d="M582.7,259.27l10.11-.05a17.6,17.6,0,0,1,3.78.37,9,9,0,0,1,3.14,1.27,6.42,6.42,0,0,1,2.15,2.42,8.27,8.27,0,0,1,.81,3.81,7.7,7.7,0,0,1-1.41,4.71,6.49,6.49,0,0,1-4.2,2.47l6.7,11-6.9,0-5.52-10.41-2.84,0,.05,10.44-5.75,0ZM588.51,270l3.4,0c.51,0,1.06,0,1.64-.06a5.06,5.06,0,0,0,1.57-.34,2.7,2.7,0,0,0,1.16-.87,2.64,2.64,0,0,0,.46-1.66,2.78,2.78,0,0,0-.41-1.58,2.71,2.71,0,0,0-1-.9,4.51,4.51,0,0,0-1.44-.42,11.37,11.37,0,0,0-1.59-.1l-3.76,0Z" transform="translate(-188.47 -244.67)"/></svg>